<mxfile host="app.diagrams.net" agent="Mozilla/5.0 (Macintosh; Intel Mac OS X 10.15; rv:139.0) Gecko/20100101 Firefox/139.0" version="27.1.4" pages="2">
  <diagram name="Page-1" id="t-v4UrQDhg3Ys6JVKxCN">
    <mxGraphModel dx="839" dy="543" grid="0" gridSize="10" guides="1" tooltips="1" connect="1" arrows="1" fold="1" page="1" pageScale="1" pageWidth="400" pageHeight="500" math="1" shadow="0">
      <root>
        <mxCell id="0" />
        <mxCell id="1" parent="0" />
        <mxCell id="KKPDik1fxqIIwcvILY8H-4" value="&lt;font face=&quot;Times New Roman&quot;&gt;&lt;i&gt;f&lt;/i&gt;&lt;/font&gt;" style="ellipse;whiteSpace=wrap;html=1;aspect=fixed;" parent="1" vertex="1">
          <mxGeometry x="185" y="450" width="30" height="30" as="geometry" />
        </mxCell>
        <mxCell id="KKPDik1fxqIIwcvILY8H-7" value="&lt;font face=&quot;Times New Roman&quot;&gt;a&lt;/font&gt;" style="rounded=0;whiteSpace=wrap;html=1;" parent="1" vertex="1">
          <mxGeometry x="180" y="410" width="40" height="20" as="geometry" />
        </mxCell>
        <mxCell id="KKPDik1fxqIIwcvILY8H-12" value="&lt;font face=&quot;Times New Roman&quot;&gt;p&lt;sub&gt;6&lt;/sub&gt;&lt;/font&gt;" style="ellipse;whiteSpace=wrap;html=1;aspect=fixed;" parent="1" vertex="1">
          <mxGeometry x="185" y="360" width="30" height="30" as="geometry" />
        </mxCell>
        <mxCell id="KKPDik1fxqIIwcvILY8H-13" value="" style="rounded=0;whiteSpace=wrap;html=1;fillColor=#000000;" parent="1" vertex="1">
          <mxGeometry x="180" y="320" width="40" height="20" as="geometry" />
        </mxCell>
        <mxCell id="KKPDik1fxqIIwcvILY8H-14" value="&lt;font face=&quot;Times New Roman&quot;&gt;p&lt;sub&gt;5&lt;/sub&gt;&lt;/font&gt;" style="ellipse;whiteSpace=wrap;html=1;aspect=fixed;" parent="1" vertex="1">
          <mxGeometry x="250" y="270" width="30" height="30" as="geometry" />
        </mxCell>
        <mxCell id="KKPDik1fxqIIwcvILY8H-15" value="&lt;font face=&quot;Times New Roman&quot;&gt;p&lt;sub&gt;4&lt;/sub&gt;&lt;/font&gt;" style="ellipse;whiteSpace=wrap;html=1;aspect=fixed;" parent="1" vertex="1">
          <mxGeometry x="120" y="270" width="30" height="30" as="geometry" />
        </mxCell>
        <mxCell id="KKPDik1fxqIIwcvILY8H-16" value="&lt;font face=&quot;Times New Roman&quot;&gt;b&lt;/font&gt;" style="rounded=0;whiteSpace=wrap;html=1;" parent="1" vertex="1">
          <mxGeometry x="115" y="180" width="40" height="20" as="geometry" />
        </mxCell>
        <mxCell id="KKPDik1fxqIIwcvILY8H-17" value="&lt;font face=&quot;Times New Roman&quot;&gt;p&lt;sub&gt;2&lt;/sub&gt;&lt;/font&gt;" style="ellipse;whiteSpace=wrap;html=1;aspect=fixed;" parent="1" vertex="1">
          <mxGeometry x="120" y="90" width="30" height="30" as="geometry" />
        </mxCell>
        <mxCell id="KKPDik1fxqIIwcvILY8H-18" value="" style="rounded=0;whiteSpace=wrap;html=1;fillColor=#000000;" parent="1" vertex="1">
          <mxGeometry x="245" y="230" width="40" height="20" as="geometry" />
        </mxCell>
        <mxCell id="KKPDik1fxqIIwcvILY8H-19" value="" style="rounded=0;whiteSpace=wrap;html=1;fillColor=#000000;" parent="1" vertex="1">
          <mxGeometry x="245" y="140" width="40" height="20" as="geometry" />
        </mxCell>
        <mxCell id="KKPDik1fxqIIwcvILY8H-20" value="" style="rounded=0;whiteSpace=wrap;html=1;fillColor=#000000;" parent="1" vertex="1">
          <mxGeometry x="180" y="50" width="40" height="20" as="geometry" />
        </mxCell>
        <mxCell id="KKPDik1fxqIIwcvILY8H-21" value="&lt;font face=&quot;Times New Roman&quot;&gt;&lt;i&gt;i&lt;/i&gt;&lt;/font&gt;" style="ellipse;whiteSpace=wrap;html=1;aspect=fixed;" parent="1" vertex="1">
          <mxGeometry x="185" width="30" height="30" as="geometry" />
        </mxCell>
        <mxCell id="KKPDik1fxqIIwcvILY8H-22" value="&lt;font face=&quot;Times New Roman&quot;&gt;p&lt;sub&gt;3&lt;/sub&gt;&lt;/font&gt;" style="ellipse;whiteSpace=wrap;html=1;aspect=fixed;" parent="1" vertex="1">
          <mxGeometry x="250" y="90" width="30" height="30" as="geometry" />
        </mxCell>
        <mxCell id="KKPDik1fxqIIwcvILY8H-23" value="" style="endArrow=classic;html=1;rounded=0;exitX=0.5;exitY=1;exitDx=0;exitDy=0;entryX=0.5;entryY=0;entryDx=0;entryDy=0;" parent="1" source="kCBDgT7o6BG6CXSuEUOb-7" target="KKPDik1fxqIIwcvILY8H-20" edge="1">
          <mxGeometry width="50" height="50" relative="1" as="geometry">
            <mxPoint x="320" y="210" as="sourcePoint" />
            <mxPoint x="370" y="160" as="targetPoint" />
          </mxGeometry>
        </mxCell>
        <mxCell id="KKPDik1fxqIIwcvILY8H-24" value="" style="endArrow=classic;html=1;rounded=0;exitX=0.5;exitY=1;exitDx=0;exitDy=0;entryX=0.5;entryY=0;entryDx=0;entryDy=0;" parent="1" source="KKPDik1fxqIIwcvILY8H-20" target="KKPDik1fxqIIwcvILY8H-22" edge="1">
          <mxGeometry width="50" height="50" relative="1" as="geometry">
            <mxPoint x="320" y="210" as="sourcePoint" />
            <mxPoint x="370" y="160" as="targetPoint" />
          </mxGeometry>
        </mxCell>
        <mxCell id="KKPDik1fxqIIwcvILY8H-25" value="" style="endArrow=classic;html=1;rounded=0;exitX=0.5;exitY=1;exitDx=0;exitDy=0;entryX=0.5;entryY=0;entryDx=0;entryDy=0;" parent="1" source="KKPDik1fxqIIwcvILY8H-20" target="KKPDik1fxqIIwcvILY8H-17" edge="1">
          <mxGeometry width="50" height="50" relative="1" as="geometry">
            <mxPoint x="320" y="210" as="sourcePoint" />
            <mxPoint x="370" y="160" as="targetPoint" />
          </mxGeometry>
        </mxCell>
        <mxCell id="KKPDik1fxqIIwcvILY8H-27" value="" style="endArrow=classic;html=1;rounded=0;exitX=0.5;exitY=1;exitDx=0;exitDy=0;entryX=0.5;entryY=0;entryDx=0;entryDy=0;" parent="1" source="KKPDik1fxqIIwcvILY8H-17" target="KKPDik1fxqIIwcvILY8H-16" edge="1">
          <mxGeometry width="50" height="50" relative="1" as="geometry">
            <mxPoint x="210" y="80" as="sourcePoint" />
            <mxPoint x="145" y="100" as="targetPoint" />
          </mxGeometry>
        </mxCell>
        <mxCell id="KKPDik1fxqIIwcvILY8H-28" value="" style="endArrow=classic;html=1;rounded=0;exitX=0.5;exitY=1;exitDx=0;exitDy=0;entryX=0.5;entryY=0;entryDx=0;entryDy=0;" parent="1" source="KKPDik1fxqIIwcvILY8H-16" target="KKPDik1fxqIIwcvILY8H-15" edge="1">
          <mxGeometry width="50" height="50" relative="1" as="geometry">
            <mxPoint x="145" y="130" as="sourcePoint" />
            <mxPoint x="145" y="190" as="targetPoint" />
          </mxGeometry>
        </mxCell>
        <mxCell id="KKPDik1fxqIIwcvILY8H-33" value="" style="endArrow=none;dashed=1;html=1;dashPattern=1 3;strokeWidth=2;rounded=0;" parent="1" edge="1">
          <mxGeometry width="50" height="50" relative="1" as="geometry">
            <mxPoint x="264.58" y="220" as="sourcePoint" />
            <mxPoint x="265" y="170" as="targetPoint" />
          </mxGeometry>
        </mxCell>
        <mxCell id="KKPDik1fxqIIwcvILY8H-37" value="&lt;font face=&quot;Times New Roman&quot;&gt;\(&amp;nbsp;k&amp;nbsp;\) silent transitions&lt;/font&gt;" style="text;html=1;align=center;verticalAlign=middle;resizable=0;points=[];autosize=1;strokeColor=none;fillColor=none;" parent="1" vertex="1">
          <mxGeometry x="255" y="180" width="130" height="30" as="geometry" />
        </mxCell>
        <mxCell id="KKPDik1fxqIIwcvILY8H-38" value="" style="endArrow=classic;html=1;rounded=0;exitX=0.5;exitY=1;exitDx=0;exitDy=0;entryX=0.5;entryY=0;entryDx=0;entryDy=0;" parent="1" source="KKPDik1fxqIIwcvILY8H-22" target="KKPDik1fxqIIwcvILY8H-19" edge="1">
          <mxGeometry width="50" height="50" relative="1" as="geometry">
            <mxPoint x="320" y="210" as="sourcePoint" />
            <mxPoint x="370" y="160" as="targetPoint" />
          </mxGeometry>
        </mxCell>
        <mxCell id="KKPDik1fxqIIwcvILY8H-39" value="" style="endArrow=classic;html=1;rounded=0;exitX=0.5;exitY=1;exitDx=0;exitDy=0;entryX=0.5;entryY=0;entryDx=0;entryDy=0;" parent="1" source="KKPDik1fxqIIwcvILY8H-18" target="KKPDik1fxqIIwcvILY8H-14" edge="1">
          <mxGeometry width="50" height="50" relative="1" as="geometry">
            <mxPoint x="320" y="210" as="sourcePoint" />
            <mxPoint x="370" y="160" as="targetPoint" />
          </mxGeometry>
        </mxCell>
        <mxCell id="KKPDik1fxqIIwcvILY8H-40" value="" style="endArrow=classic;html=1;rounded=0;exitX=0.5;exitY=1;exitDx=0;exitDy=0;entryX=0.5;entryY=0;entryDx=0;entryDy=0;" parent="1" source="tDGtv9XZkofVJNpYTLer-4" target="KKPDik1fxqIIwcvILY8H-13" edge="1">
          <mxGeometry width="50" height="50" relative="1" as="geometry">
            <mxPoint x="145" y="310" as="sourcePoint" />
            <mxPoint x="210" y="330" as="targetPoint" />
          </mxGeometry>
        </mxCell>
        <mxCell id="KKPDik1fxqIIwcvILY8H-41" value="" style="endArrow=classic;html=1;rounded=0;exitX=0.5;exitY=1;exitDx=0;exitDy=0;entryX=0.5;entryY=0;entryDx=0;entryDy=0;" parent="1" source="KKPDik1fxqIIwcvILY8H-13" target="KKPDik1fxqIIwcvILY8H-12" edge="1">
          <mxGeometry width="50" height="50" relative="1" as="geometry">
            <mxPoint x="155" y="320" as="sourcePoint" />
            <mxPoint x="220" y="340" as="targetPoint" />
          </mxGeometry>
        </mxCell>
        <mxCell id="KKPDik1fxqIIwcvILY8H-42" value="" style="endArrow=classic;html=1;rounded=0;exitX=0.5;exitY=1;exitDx=0;exitDy=0;entryX=0.5;entryY=0;entryDx=0;entryDy=0;" parent="1" source="KKPDik1fxqIIwcvILY8H-12" target="KKPDik1fxqIIwcvILY8H-7" edge="1">
          <mxGeometry width="50" height="50" relative="1" as="geometry">
            <mxPoint x="210" y="350" as="sourcePoint" />
            <mxPoint x="210" y="370" as="targetPoint" />
          </mxGeometry>
        </mxCell>
        <mxCell id="KKPDik1fxqIIwcvILY8H-43" value="" style="endArrow=classic;html=1;rounded=0;exitX=0.5;exitY=1;exitDx=0;exitDy=0;entryX=0.5;entryY=0;entryDx=0;entryDy=0;" parent="1" source="KKPDik1fxqIIwcvILY8H-7" target="KKPDik1fxqIIwcvILY8H-4" edge="1">
          <mxGeometry width="50" height="50" relative="1" as="geometry">
            <mxPoint x="210" y="400" as="sourcePoint" />
            <mxPoint x="210" y="420" as="targetPoint" />
          </mxGeometry>
        </mxCell>
        <mxCell id="tDGtv9XZkofVJNpYTLer-1" value="" style="endArrow=classic;html=1;rounded=0;exitX=0.5;exitY=1;exitDx=0;exitDy=0;" edge="1" parent="1" source="KKPDik1fxqIIwcvILY8H-21">
          <mxGeometry width="50" height="50" relative="1" as="geometry">
            <mxPoint x="200" y="30" as="sourcePoint" />
            <mxPoint x="200" y="50" as="targetPoint" />
          </mxGeometry>
        </mxCell>
        <mxCell id="kCBDgT7o6BG6CXSuEUOb-7" value="&lt;div&gt;&lt;font style=&quot;font-size: 14px;&quot;&gt;&lt;span style=&quot;color: rgb(254, 255, 255);&quot;&gt;\( \tau_1 \)&lt;/span&gt;&lt;/font&gt;&lt;/div&gt;" style="text;html=1;align=center;verticalAlign=middle;resizable=0;points=[];autosize=1;strokeColor=none;fillColor=none;fontFamily=Helvetica;fontSize=12;fontColor=default;" parent="1" vertex="1">
          <mxGeometry x="159" y="43" width="82" height="29" as="geometry" />
        </mxCell>
        <mxCell id="tDGtv9XZkofVJNpYTLer-2" value="&lt;div&gt;&lt;font style=&quot;font-size: 14px;&quot;&gt;&lt;span style=&quot;color: rgb(254, 255, 255);&quot;&gt;\( \tau_2 \)&lt;/span&gt;&lt;/font&gt;&lt;/div&gt;" style="text;html=1;align=center;verticalAlign=middle;resizable=0;points=[];autosize=1;strokeColor=none;fillColor=none;fontFamily=Helvetica;fontSize=12;fontColor=default;" vertex="1" parent="1">
          <mxGeometry x="224" y="134" width="82" height="29" as="geometry" />
        </mxCell>
        <mxCell id="tDGtv9XZkofVJNpYTLer-3" value="&lt;div&gt;&lt;font style=&quot;font-size: 14px;&quot;&gt;&lt;span style=&quot;color: rgb(254, 255, 255);&quot;&gt;\( \tau_3 \)&lt;/span&gt;&lt;/font&gt;&lt;/div&gt;" style="text;html=1;align=center;verticalAlign=middle;resizable=0;points=[];autosize=1;strokeColor=none;fillColor=none;fontFamily=Helvetica;fontSize=12;fontColor=default;" vertex="1" parent="1">
          <mxGeometry x="224" y="225.5" width="82" height="29" as="geometry" />
        </mxCell>
        <mxCell id="tDGtv9XZkofVJNpYTLer-5" value="" style="endArrow=classic;html=1;rounded=0;exitX=0.5;exitY=1;exitDx=0;exitDy=0;entryX=0.5;entryY=0;entryDx=0;entryDy=0;" edge="1" parent="1" source="KKPDik1fxqIIwcvILY8H-15" target="KKPDik1fxqIIwcvILY8H-13">
          <mxGeometry width="50" height="50" relative="1" as="geometry">
            <mxPoint x="139" y="287.92999999999995" as="sourcePoint" />
            <mxPoint x="200.06399999999996" y="300.00300000000004" as="targetPoint" />
          </mxGeometry>
        </mxCell>
        <mxCell id="tDGtv9XZkofVJNpYTLer-6" value="" style="endArrow=classic;html=1;rounded=0;exitX=0.5;exitY=1;exitDx=0;exitDy=0;entryX=0.5;entryY=0;entryDx=0;entryDy=0;" edge="1" parent="1" source="KKPDik1fxqIIwcvILY8H-14" target="KKPDik1fxqIIwcvILY8H-13">
          <mxGeometry width="50" height="50" relative="1" as="geometry">
            <mxPoint x="265" y="300" as="sourcePoint" />
            <mxPoint x="201" y="309" as="targetPoint" />
          </mxGeometry>
        </mxCell>
        <mxCell id="tDGtv9XZkofVJNpYTLer-4" value="&lt;div&gt;&lt;font style=&quot;font-size: 14px;&quot;&gt;&lt;span style=&quot;color: rgb(254, 255, 255);&quot;&gt;\( \tau_4 \)&lt;/span&gt;&lt;/font&gt;&lt;/div&gt;" style="text;html=1;align=center;verticalAlign=middle;resizable=0;points=[];autosize=1;strokeColor=none;fillColor=none;fontFamily=Helvetica;fontSize=12;fontColor=default;" vertex="1" parent="1">
          <mxGeometry x="159" y="315.5" width="82" height="29" as="geometry" />
        </mxCell>
      </root>
    </mxGraphModel>
  </diagram>
  <diagram id="lCIeO0ZOoTCmVjGk7bvq" name="Side-2">
    <mxGraphModel grid="1" page="1" gridSize="10" guides="1" tooltips="1" connect="1" arrows="1" fold="1" pageScale="1" pageWidth="827" pageHeight="1169" math="0" shadow="0">
      <root>
        <mxCell id="0" />
        <mxCell id="1" parent="0" />
      </root>
    </mxGraphModel>
  </diagram>
</mxfile>
